<svg xmlns="http://www.w3.org/2000/svg" width="726.737" height="663.451" viewBox="0 0 726.737 663.451"><g transform="translate(-642 -166.608)"><path d="M1206.745,554.323,965.1,800.457" transform="translate(-268.57 -71.407)" fill="none" stroke="#93c13d" stroke-linecap="round" stroke-width="15" opacity="0.12"/><path d="M1186.559,579,965.1,800.457" transform="translate(163.794 -394.007)" fill="none" stroke="#93c13d" stroke-linecap="round" stroke-width="26" opacity="0.12"/><path d="M1541.237,229.535,965.1,800.457" transform="translate(-294.171 -2.606)" fill="none" stroke="#208f77" stroke-linecap="round" stroke-width="15" opacity="0.12"/><path d="M1186.559,579,965.1,800.457" transform="translate(-268.57 18.995)" fill="none" stroke="#93c13d" stroke-linecap="round" stroke-width="15" opacity="0.12"/><circle cx="8" cy="8" r="8" transform="translate(642 805)" fill="#208f77"/><g transform="translate(1257 192)" fill="none" stroke="#208f77" stroke-width="6"><ellipse cx="12.5" cy="13" rx="12.5" ry="13" stroke="none"/><ellipse cx="12.5" cy="13" rx="9.5" ry="10" fill="none"/></g><g transform="matrix(0.966, -0.259, 0.259, 0.966, 820.861, 634.83)" fill="none" stroke="#208f77" stroke-width="6"><circle cx="17" cy="17" r="17" stroke="none"/><circle cx="17" cy="17" r="14" fill="none"/></g><g transform="matrix(0.966, -0.259, 0.259, 0.966, 1196.191, 488.523)" fill="none" stroke="#208f77" stroke-width="5"><circle cx="9.5" cy="9.5" r="9.5" stroke="none"/><circle cx="9.5" cy="9.5" r="7" fill="none"/></g><g transform="matrix(0.629, -0.777, 0.777, 0.629, 795.488, 484.679)" fill="none"><path d="M19.5,0,39,34H0Z" stroke="none"/><path d="M 19.50009155273438 12.05996704101563 L 10.35796165466309 28.00002670288086 L 28.64221954345703 28.00002670288086 L 19.50009155273438 12.05996704101563 M 19.50009155273438 3.814697265625e-06 L 39.00017929077148 34.00002670288086 L 3.814697265625e-06 34.00002670288086 L 19.50009155273438 3.814697265625e-06 Z" stroke="none" fill="#93c13d"/></g><g transform="matrix(0.978, 0.208, -0.208, 0.978, 1246.766, 412.162)" fill="none"><path d="M18,0,36,18,18,36,0,18Z" stroke="none"/><path d="M 18 8.485288619995117 L 8.485288619995117 18 L 18 27.51471138000488 L 27.51471138000488 18 L 18 8.485288619995117 M 18 0 L 36 18 L 18 36 L 0 18 L 18 0 Z" stroke="none" fill="#93c13d"/></g></g></svg>